<svg width="24" height="24" viewBox="0 0 24 24" fill="none" xmlns="http://www.w3.org/2000/svg">
<path d="M12.1328 1C13.3086 1.00011 14.3082 1.7436 14.6943 2.78516C14.9737 2.6882 15.2734 2.63379 15.5859 2.63379C16.8523 2.63394 17.9134 3.50044 18.2158 4.67285C18.4491 4.6096 18.6945 4.57422 18.9482 4.57422C20.4932 4.57441 21.7459 5.82719 21.7461 7.37207V14.8115C21.7461 14.8575 21.7414 14.9029 21.7353 14.9473C21.5812 19.4012 17.9265 22.9657 13.4345 22.9658C10.7012 22.9657 8.27546 21.6442 6.76267 19.6104V19.6094L2.874 14.6318C1.88483 13.3649 2.11106 11.5369 3.37693 10.5479C4.14509 9.94793 5.11928 9.79607 5.98826 10.0508V5.22266C5.98826 3.72383 7.2033 2.50879 8.70213 2.50879C9.02223 2.50882 9.32857 2.56634 9.61326 2.66797C10.0288 1.68748 11.0008 1 12.1328 1ZM12.1328 3C11.7633 3 11.4577 3.27269 11.4062 3.62793C11.4232 3.70083 11.4336 3.77644 11.4336 3.85449V10.4473L11.4287 10.5488C11.3777 11.0533 10.9515 11.4473 10.4336 11.4473C9.91568 11.4472 9.48944 11.0533 9.43846 10.5488L9.43357 10.4473V5.25098C9.42252 5.20998 9.41308 5.16812 9.40721 5.125C9.35984 4.77604 9.06098 4.50892 8.70213 4.50879C8.30787 4.50879 7.98826 4.8284 7.98826 5.22266V12.0684L7.97557 12.2256C7.91823 12.5858 7.66714 12.8919 7.31443 13.0137C6.91112 13.1527 6.46308 13.0205 6.20017 12.6846L5.88475 12.2812V12.2803C5.57531 11.8846 5.00351 11.8146 4.6074 12.124C4.21121 12.4338 4.14128 13.0058 4.45017 13.4014L8.3535 18.3984L8.36814 18.417C9.51991 19.9652 11.3605 20.9657 13.4345 20.9658C16.8736 20.9657 19.669 18.2133 19.7412 14.791L19.7461 14.7275V7.37207C19.746 6.95895 19.4316 6.61891 19.0293 6.57812L18.9482 6.57422C18.6902 6.57422 18.4599 6.69825 18.3135 6.89258V10.4463C18.3135 10.9985 17.8656 11.4461 17.3135 11.4463C16.7612 11.4463 16.3135 10.9986 16.3135 10.4463V6.76172C16.3088 6.72285 16.3057 6.68349 16.3056 6.64355V5.35254C16.3054 5.00558 16.0591 4.71576 15.7314 4.64844L15.5859 4.63379C15.21 4.63379 14.9049 4.92215 14.873 5.29004V5.31152C14.8732 5.31835 14.874 5.32517 14.874 5.33203V10.4463C14.874 10.572 14.849 10.6919 14.8066 10.8027C14.8046 10.8081 14.8039 10.814 14.8017 10.8193C14.751 10.9454 14.6755 11.0588 14.581 11.1533C14.4 11.3349 14.1496 11.4472 13.873 11.4473C13.3209 11.4472 12.8732 10.9994 12.873 10.4473V5.44043C12.8692 5.40512 12.8672 5.36931 12.8672 5.33301V3.73438C12.8672 3.35428 12.5781 3.0417 12.208 3.00391L12.1328 3Z" fill="#0F1419"/>
</svg>
